<?xml version="1.0" encoding="UTF-8"?>
<svg xmlns="http://www.w3.org/2000/svg" width="1400" height="1000" viewBox="0 0 1400 1000"><defs><pattern id="grain" width="17" height="17" patternUnits="userSpaceOnUse"><circle cx="3" cy="5" r="1" fill="#b4a885" opacity=".25"/></pattern><pattern id="water" width="38" height="28" patternUnits="userSpaceOnUse"><path d="M0 14q9-7 19 0t19 0" fill="none" stroke="#92a7a8" stroke-width="2"/></pattern></defs><rect width="1400" height="1000" fill="#e7dcc0"/><rect width="1400" height="1000" fill="url(#grain)"/><rect x="24" y="24" width="1352" height="952" fill="none" stroke="#514836" stroke-width="5"/><rect x="37" y="37" width="1326" height="926" fill="none" stroke="#8f7e5e" stroke-width="2"/><path d="M1190 40 Q1215 170 1205 285 Q1170 390 1210 520 Q1240 700 1220 960 L1360 960 L1360 40Z" fill="url(#water)" stroke="#738b8f" stroke-width="6"/><text x="1290" y="570" font-family="Georgia,serif" font-size="31" text-anchor="middle" fill="#547477">SEA</text><path d="M160 240 Q500 225 680 310 Q810 370 1000 455" fill="none" stroke="#b7a46c" stroke-width="100" opacity=".3"/><path d="M270 282v-18 M248 266q22-48 44 0z" fill="#7d886e" stroke="#59664f" stroke-width="2"/><path d="M350 252v-18 M328 236q22-48 44 0z" fill="#7d886e" stroke="#59664f" stroke-width="2"/><path d="M430 322v-18 M408 306q22-48 44 0z" fill="#7d886e" stroke="#59664f" stroke-width="2"/><path d="M500 292v-18 M478 276q22-48 44 0z" fill="#7d886e" stroke="#59664f" stroke-width="2"/><path d="M580 312v-18 M558 296q22-48 44 0z" fill="#7d886e" stroke="#59664f" stroke-width="2"/><path d="M620 332v-18 M598 316q22-48 44 0z" fill="#7d886e" stroke="#59664f" stroke-width="2"/><path d="M350 692v-18 M328 676q22-48 44 0z" fill="#7d886e" stroke="#59664f" stroke-width="2"/><path d="M440 642v-18 M418 626q22-48 44 0z" fill="#7d886e" stroke="#59664f" stroke-width="2"/><path d="M525 712v-18 M503 696q22-48 44 0z" fill="#7d886e" stroke="#59664f" stroke-width="2"/><path d="M610 642v-18 M588 626q22-48 44 0z" fill="#7d886e" stroke="#59664f" stroke-width="2"/><path d="M205 430 Q320 470 450 520 T700 560 Q850 600 1100 700" fill="none" stroke="#8b7759" stroke-width="12" stroke-linejoin="round" stroke-linecap="round" /><path d="M350 820 Q410 700 450 520 Q540 430 710 570" fill="none" stroke="#8b7759" stroke-width="10" stroke-linejoin="round" stroke-linecap="round" /><path d="M580 540 Q690 475 800 590 Q880 620 1210 600" fill="none" stroke="#7d9fa1" stroke-width="34" stroke-linejoin="round" stroke-linecap="round" /><path d="M580 540 Q690 475 800 590 Q880 620 1210 600" fill="none" stroke="#c2d2cc" stroke-width="14" stroke-linejoin="round" stroke-linecap="round" /><text x="730" y="760" font-family="Georgia,serif" font-size="29" text-anchor="start" fill="#352f29">Fen</text><text x="1050" y="270" font-family="Georgia,serif" font-size="23" text-anchor="start" fill="#352f29">Coastal approach</text>}<rect x="70" y="60" width="1260" height="68" fill="#e7dcc0" opacity=".9"/><text x="700" y="106" font-family="Georgia,serif" font-size="40" text-anchor="middle" fill="#352f29">Tunstall, the Till, and Shoreby</text><path d="M1290 805v-84l-12 24 12-60 12 60-12-24" fill="none" stroke="#514836" stroke-width="5"/><text x="1290" y="840" font-family="Georgia,serif" font-size="27" text-anchor="middle" fill="#352f29">N</text><text x="70" y="937" font-family="Georgia,serif" font-size="18" text-anchor="start" fill="#352f29">Interpretive chart; distances and building plans are approximate.</text></svg>
