<?xml version="1.0" encoding="UTF-8"?>
<svg xmlns="http://www.w3.org/2000/svg" width="1400" height="1000" viewBox="0 0 1400 1000"><defs><pattern id="grain" width="17" height="17" patternUnits="userSpaceOnUse"><circle cx="3" cy="5" r="1" fill="#b4a885" opacity=".25"/></pattern><pattern id="water" width="38" height="28" patternUnits="userSpaceOnUse"><path d="M0 14q9-7 19 0t19 0" fill="none" stroke="#92a7a8" stroke-width="2"/></pattern></defs><rect width="1400" height="1000" fill="#e7dcc0"/><rect width="1400" height="1000" fill="url(#grain)"/><rect x="24" y="24" width="1352" height="952" fill="none" stroke="#514836" stroke-width="5"/><rect x="37" y="37" width="1326" height="926" fill="none" stroke="#8f7e5e" stroke-width="2"/><path d="M240 330H1100V670H240Z M580 180H760V820H580Z" fill="#d2c09b" fill-rule="evenodd" stroke="#65533e" stroke-width="12"/><path d="M310 500H1040" fill="none" stroke="#78664a" stroke-width="5" stroke-linejoin="round" stroke-linecap="round" /><rect x="855" y="210" width="245" height="150" fill="#c4af89" stroke="#5e5844" stroke-width="6"/><text x="665" y="535" font-family="Georgia,serif" font-size="32" text-anchor="middle" fill="#352f29">NAVE</text><text x="915" y="330" font-family="Georgia,serif" font-size="25" text-anchor="middle" fill="#352f29">EARL’S ROOM</text><text x="660" y="250" font-family="Georgia,serif" font-size="21" text-anchor="middle" fill="#352f29">NORTH TRANSEPT</text><circle cx="580" cy="500" r="11" fill="#392f28" stroke="#f1e5bf" stroke-width="3"/><text x="597" y="486" font-family="Georgia,serif" font-size="21" text-anchor="start" fill="#352f29">Shoreby abbey church</text><circle cx="1000" cy="300" r="11" fill="#392f28" stroke="#f1e5bf" stroke-width="3"/><text x="1017" y="286" font-family="Georgia,serif" font-size="21" text-anchor="start" fill="#352f29">Risingham’s chamber</text><rect x="70" y="60" width="1260" height="68" fill="#e7dcc0" opacity=".9"/><text x="700" y="106" font-family="Georgia,serif" font-size="40" text-anchor="middle" fill="#352f29">Shoreby Abbey</text><path d="M1290 805v-84l-12 24 12-60 12 60-12-24" fill="none" stroke="#514836" stroke-width="5"/><text x="1290" y="840" font-family="Georgia,serif" font-size="27" text-anchor="middle" fill="#352f29">N</text><text x="70" y="937" font-family="Georgia,serif" font-size="18" text-anchor="start" fill="#352f29">Interpretive chart; distances and building plans are approximate.</text></svg>
