<?xml version="1.0" encoding="UTF-8"?>
<svg xmlns="http://www.w3.org/2000/svg" width="1400" height="1000" viewBox="0 0 1400 1000"><defs><pattern id="grain" width="17" height="17" patternUnits="userSpaceOnUse"><circle cx="3" cy="5" r="1" fill="#b4a885" opacity=".25"/></pattern><pattern id="water" width="38" height="28" patternUnits="userSpaceOnUse"><path d="M0 14q9-7 19 0t19 0" fill="none" stroke="#92a7a8" stroke-width="2"/></pattern></defs><rect width="1400" height="1000" fill="#e7dcc0"/><rect width="1400" height="1000" fill="url(#grain)"/><rect x="24" y="24" width="1352" height="952" fill="none" stroke="#514836" stroke-width="5"/><rect x="37" y="37" width="1326" height="926" fill="none" stroke="#8f7e5e" stroke-width="2"/><path d="M 80 80 Q 160 460 80 890" fill="none" stroke="#b6aa87" stroke-width="2" stroke-linejoin="round" stroke-linecap="round" opacity=".45"/><path d="M 135 80 Q 200 460 135 890" fill="none" stroke="#b6aa87" stroke-width="2" stroke-linejoin="round" stroke-linecap="round" opacity=".45"/><path d="M 190 80 Q 240 460 190 890" fill="none" stroke="#b6aa87" stroke-width="2" stroke-linejoin="round" stroke-linecap="round" opacity=".45"/><path d="M 245 80 Q 280 460 245 890" fill="none" stroke="#b6aa87" stroke-width="2" stroke-linejoin="round" stroke-linecap="round" opacity=".45"/><path d="M 300 80 Q 320 460 300 890" fill="none" stroke="#b6aa87" stroke-width="2" stroke-linejoin="round" stroke-linecap="round" opacity=".45"/><path d="M 355 80 Q 360 460 355 890" fill="none" stroke="#b6aa87" stroke-width="2" stroke-linejoin="round" stroke-linecap="round" opacity=".45"/><path d="M70 820 Q340 760 650 865 T1320 810" fill="none" stroke="#7d9fa1" stroke-width="85" stroke-linejoin="round" stroke-linecap="round" /><path d="M70 820 Q340 760 650 865 T1320 810" fill="none" stroke="#c1d1ca" stroke-width="26" stroke-linejoin="round" stroke-linecap="round" /><path d="M210 760 L210 890" fill="none" stroke="#7d684d" stroke-width="22" stroke-linejoin="round" stroke-linecap="round" /><path d="M210 320 Q400 470 660 530 T1240 650" fill="none" stroke="#8c795b" stroke-width="27" stroke-linejoin="round" stroke-linecap="round" /><path d="M210 320 Q400 470 660 530 T1240 650" fill="none" stroke="#d6c399" stroke-width="10" stroke-linejoin="round" stroke-linecap="round" /><rect x="130" y="280" width="170" height="105" fill="#d7c9a4" stroke="#5e5844" stroke-width="6"/><rect x="430" y="225" width="165" height="120" fill="#d7c9a4" stroke="#5e5844" stroke-width="6"/><rect x="695" y="335" width="150" height="110" fill="#d7c9a4" stroke="#5e5844" stroke-width="6"/><rect x="910" y="485" width="170" height="115" fill="#d7c9a4" stroke="#5e5844" stroke-width="6"/><text x="520" y="205" font-family="Georgia,serif" font-size="24" text-anchor="middle" fill="#352f29">Church and yews</text><path d="M530 207v-18 M508 191q22-48 44 0z" fill="#7d886e" stroke="#59664f" stroke-width="2"/><path d="M610 252v-18 M588 236q22-48 44 0z" fill="#7d886e" stroke="#59664f" stroke-width="2"/><path d="M475 322v-18 M453 306q22-48 44 0z" fill="#7d886e" stroke="#59664f" stroke-width="2"/><path d="M1020 422v-18 M998 406q22-48 44 0z" fill="#7d886e" stroke="#59664f" stroke-width="2"/><circle cx="320" cy="530" r="45" fill="#c3b17f" stroke="#66634d" stroke-width="4"/><text x="320" y="590" font-family="Georgia,serif" font-size="23" text-anchor="middle" fill="#352f29">Stone cross</text><circle cx="660" cy="530" r="11" fill="#392f28" stroke="#f1e5bf" stroke-width="3"/><text x="677" y="516" font-family="Georgia,serif" font-size="21" text-anchor="start" fill="#352f29">Tunstall road</text><circle cx="320" cy="530" r="11" fill="#392f28" stroke="#f1e5bf" stroke-width="3"/><text x="337" y="516" font-family="Georgia,serif" font-size="21" text-anchor="start" fill="#352f29">Tunstall green</text><circle cx="220" cy="350" r="11" fill="#392f28" stroke="#f1e5bf" stroke-width="3"/><text x="237" y="336" font-family="Georgia,serif" font-size="21" text-anchor="start" fill="#352f29">Appleyard’s house</text><circle cx="520" cy="330" r="11" fill="#392f28" stroke="#f1e5bf" stroke-width="3"/><text x="537" y="316" font-family="Georgia,serif" font-size="21" text-anchor="start" fill="#352f29">Tunstall church</text><rect x="70" y="60" width="1260" height="68" fill="#e7dcc0" opacity=".9"/><text x="700" y="106" font-family="Georgia,serif" font-size="40" text-anchor="middle" fill="#352f29">Tunstall Hamlet</text><path d="M1290 805v-84l-12 24 12-60 12 60-12-24" fill="none" stroke="#514836" stroke-width="5"/><text x="1290" y="840" font-family="Georgia,serif" font-size="27" text-anchor="middle" fill="#352f29">N</text><text x="70" y="937" font-family="Georgia,serif" font-size="18" text-anchor="start" fill="#352f29">Interpretive chart; distances and building plans are approximate.</text></svg>
