<svg xmlns="http://www.w3.org/2000/svg" width="1024" height="559" viewBox="0 0 1024 559" preserveAspectRatio="none">
<defs><radialGradient id="paper"><stop offset="0" stop-color="#f7efd8"/><stop offset="1" stop-color="#e9d9b6"/></radialGradient><pattern id="dots" width="23" height="23" patternUnits="userSpaceOnUse"><circle cx="3" cy="5" r="1" fill="#876f4e" opacity=".12"/></pattern></defs>
<rect width="1024" height="559" fill="url(#paper)"/><rect width="1024" height="559" fill="url(#dots)"/>
<rect x="11" y="11" width="1002" height="537" rx="12" fill="none" stroke="#7a6145" stroke-width="3"/><rect x="19" y="19" width="986" height="521" rx="7" fill="none" stroke="#b79a70" stroke-width="1"/>
<style>.title{font:small-caps 27px Georgia,serif;letter-spacing:3px;fill:#55432f}.label{font-family:Georgia,serif;fill:#40392d}.small{font:italic 13px Georgia,serif;fill:#5d5141}</style>
<text x="512" y="38" text-anchor="middle" class="title">The Land of Oz</text><path d="M270 46H754" stroke="#8b7352" stroke-width="1"/>
<defs><clipPath id="ozShape"><ellipse cx="512" cy="294" rx="473" ry="225"/></clipPath></defs>
<ellipse cx="512" cy="294" rx="485" ry="238" fill="#d8b77f" stroke="#9d7653" stroke-width="3"/>
<g clip-path="url(#ozShape)"><rect x="37" y="70" width="950" height="450" fill="#d5e0c8"/>
<path d="M37 156 Q255 111 414 223L480 350Q364 467 70 520Z" fill="#e9d993"/>
<path d="M987 120 Q738 109 621 210L570 365Q762 471 987 470Z" fill="#bdcfe2"/>
<path d="M55 520Q295 414 502 342Q716 399 987 506Z" fill="#dfa9a1"/>
<path d="M53 205Q272 138 404 223M650 176Q795 105 981 210M250 465Q525 406 792 484" fill="none" stroke="#9eaa8d" stroke-width="3" opacity=".65"/>
<path d="M905 301C830 270 766 329 695 302S589 266 512 286" fill="none" stroke="#9b7c37" stroke-width="14" stroke-linecap="round"/>
<path d="M905 301C830 270 766 329 695 302S589 266 512 286" fill="none" stroke="#f0d169" stroke-width="10" stroke-linecap="round"/>
<path d="M492 304C403 320 275 295 174 294M518 312C492 377 553 409 564 469" fill="none" stroke="#907b58" stroke-width="4" stroke-dasharray="10 9"/>
<g transform="translate(235 191) scale(0.75)"><path d="M0 7V32" stroke="#65583a" stroke-width="5"/><path d="M0-27 C-25-22-26 7 0 10 C26 7 25-22 0-27Z" fill="#6a8b65" stroke="#506647" stroke-width="2"/></g><g transform="translate(283 397) scale(0.7)"><path d="M0 7V32" stroke="#65583a" stroke-width="5"/><path d="M0-27 C-25-22-26 7 0 10 C26 7 25-22 0-27Z" fill="#6a8b65" stroke="#506647" stroke-width="2"/></g><g transform="translate(741 204) scale(0.6)"><path d="M0 7V32" stroke="#65583a" stroke-width="5"/><path d="M0-27 C-25-22-26 7 0 10 C26 7 25-22 0-27Z" fill="#6a8b65" stroke="#506647" stroke-width="2"/></g><g transform="translate(800 373) scale(0.6)"><path d="M0 7V32" stroke="#65583a" stroke-width="5"/><path d="M0-27 C-25-22-26 7 0 10 C26 7 25-22 0-27Z" fill="#6a8b65" stroke="#506647" stroke-width="2"/></g><g transform="translate(408 414) scale(0.7)"><path d="M0 7V32" stroke="#65583a" stroke-width="5"/><path d="M0-27 C-25-22-26 7 0 10 C26 7 25-22 0-27Z" fill="#6a8b65" stroke="#506647" stroke-width="2"/></g>
<g transform="translate(849 283)"><path d="M-24 0L0-20L24 0V28H-24Z" fill="#c8d9e9" stroke="#715b45" stroke-width="2"/><path d="M-27 1L0-24L27 1" fill="none" stroke="#715b45" stroke-width="3"/><rect x="-5" y="10" width="10" height="18" fill="#765b42"/></g><g transform="translate(168 290)"><path d="M-38 26V-14H-26V-30H-12V-14H12V-38H26V-14H38V26Z" fill="#d4b552" stroke="#755b43" stroke-width="3"/><path d="M-42-14L-31-33L-21-14M8-38L19-57L30-38" fill="#d4b552" stroke="#755b43" stroke-width="3"/><path d="M-7 26V7A7 7 0 0 1 7 7V26" fill="#735941"/></g><g transform="translate(529 278)"><path d="M-38 26V-14H-26V-30H-12V-14H12V-38H26V-14H38V26Z" fill="#92bd9c" stroke="#755b43" stroke-width="3"/><path d="M-42-14L-31-33L-21-14M8-38L19-57L30-38" fill="#92bd9c" stroke="#755b43" stroke-width="3"/><path d="M-7 26V7A7 7 0 0 1 7 7V26" fill="#735941"/></g><g transform="translate(563 465)"><path d="M-38 26V-14H-26V-30H-12V-14H12V-38H26V-14H38V26Z" fill="#d8938d" stroke="#755b43" stroke-width="3"/><path d="M-42-14L-31-33L-21-14M8-38L19-57L30-38" fill="#d8938d" stroke="#755b43" stroke-width="3"/><path d="M-7 26V7A7 7 0 0 1 7 7V26" fill="#735941"/></g>
</g><ellipse cx="512" cy="294" rx="473" ry="225" fill="none" stroke="#785e46" stroke-width="3"/>
<text x="516" y="105" text-anchor="middle" class="label" font-size="18">Northern Country</text><text x="225" y="367" text-anchor="middle" class="label" font-size="19">Winkie Country</text><text x="810" y="393" text-anchor="middle" class="label" font-size="19">Munchkin Country</text><text x="515" y="481" text-anchor="middle" class="label" font-size="19">Quadling Country</text>
<text x="512" y="320" text-anchor="middle" class="small">Emerald City</text><text x="895" y="335" text-anchor="middle" class="small">The Eastern Road</text><text x="174" y="332" text-anchor="middle" class="small">Yellow Castle</text><text x="554" y="504" text-anchor="middle" class="small">Glinda</text>
<text x="512" y="520" text-anchor="middle" class="small">The Deadly Desert surrounds Oz • First-book places only</text>
<path d="M43 514h60m-30-25v50" stroke="#826948" stroke-width="2"/><text x="73" y="484" text-anchor="middle" class="small">N</text>
</svg>